<svg width="13" height="18" viewBox="0 0 13 18" fill="none" xmlns="http://www.w3.org/2000/svg">
<path d="M12.8555 18H1.16016V15.6797L6.67969 9.79688C7.4375 8.96875 7.99609 8.24609 8.35547 7.62891C8.72266 7.01172 8.90625 6.42578 8.90625 5.87109C8.90625 5.11328 8.71484 4.51953 8.33203 4.08984C7.94922 3.65234 7.40234 3.43359 6.69141 3.43359C5.92578 3.43359 5.32031 3.69922 4.875 4.23047C4.4375 4.75391 4.21875 5.44531 4.21875 6.30469H0.820312C0.820312 5.26562 1.06641 4.31641 1.55859 3.45703C2.05859 2.59766 2.76172 1.92578 3.66797 1.44141C4.57422 0.949219 5.60156 0.703125 6.75 0.703125C8.50781 0.703125 9.87109 1.125 10.8398 1.96875C11.8164 2.8125 12.3047 4.00391 12.3047 5.54297C12.3047 6.38672 12.0859 7.24609 11.6484 8.12109C11.2109 8.99609 10.4609 10.0156 9.39844 11.1797L5.51953 15.2695H12.8555V18Z" fill="#D9EAEF"/>
</svg>
