<svg width="58" height="58" viewBox="0 0 58 58" fill="none" xmlns="http://www.w3.org/2000/svg">
<path d="M56 29C56 43.9117 43.9117 56 29 56C14.0883 56 2 43.9117 2 29C2 14.0883 14.0883 2 29 2C43.9117 2 56 14.0883 56 29Z" fill="#BCCCD2"/>
<path fill-rule="evenodd" clip-rule="evenodd" d="M58 29C58 45.0163 45.0163 58 29 58C12.9837 58 0 45.0163 0 29C0 12.9837 12.9837 0 29 0C45.0163 0 58 12.9837 58 29ZM29 56C43.9117 56 56 43.9117 56 29C56 14.0883 43.9117 2 29 2C14.0883 2 2 14.0883 2 29C2 43.9117 14.0883 56 29 56Z" fill="#81A5B0"/>
<path fill-rule="evenodd" clip-rule="evenodd" d="M4 30C3.44772 30 3 29.5523 3 29C3 14.6406 14.6406 3 29 3C29.5523 3 30 3.44772 30 4C30 4.55228 29.5523 5 29 5C15.7452 5 5 15.7452 5 29C5 29.5523 4.55228 30 4 30Z" fill="#D0DEE3"/>
<path fill-rule="evenodd" clip-rule="evenodd" d="M54 28C54.5523 28 55 28.4477 55 29C55 43.3594 43.3594 55 29 55C28.4477 55 28 54.5523 28 54C28 53.4477 28.4477 53 29 53C42.2548 53 53 42.2548 53 29C53 28.4477 53.4477 28 54 28Z" fill="#A2B9C1"/>
<path d="M49 29C49 40.0457 40.0457 49 29 49C17.9543 49 9 40.0457 9 29C9 17.9543 17.9543 9 29 9C40.0457 9 49 17.9543 49 29Z" fill="#C7D4D8"/>
<path fill-rule="evenodd" clip-rule="evenodd" d="M51 29C51 41.1503 41.1503 51 29 51C16.8497 51 7 41.1503 7 29C7 16.8497 16.8497 7 29 7C41.1503 7 51 16.8497 51 29ZM29 49C40.0457 49 49 40.0457 49 29C49 17.9543 40.0457 9 29 9C17.9543 9 9 17.9543 9 29C9 40.0457 17.9543 49 29 49Z" fill="#81A5B0"/>
<path fill-rule="evenodd" clip-rule="evenodd" d="M29 46C38.3888 46 46 38.3888 46 29C46 28.4477 46.4477 28 47 28C47.5523 28 48 28.4477 48 29C48 39.4934 39.4934 48 29 48C28.4477 48 28 47.5523 28 47C28 46.4477 28.4477 46 29 46Z" fill="#B5C3C8"/>
<path fill-rule="evenodd" clip-rule="evenodd" d="M29 12C19.6112 12 12 19.6112 12 29C12 29.5523 11.5523 30 11 30C10.4477 30 10 29.5523 10 29C10 18.5066 18.5066 10 29 10C29.5523 10 30 10.4477 30 11C30 11.5523 29.5523 12 29 12Z" fill="#D9EAEF"/>
</svg>
