<svg width="29" height="26" viewBox="0 0 29 26" fill="none" xmlns="http://www.w3.org/2000/svg">
<path d="M28 13.1875C28 19.7114 21.9558 25 14.5 25C7.04416 25 1 19.7114 1 13.1875C1 6.66364 7.04416 1.375 14.5 1.375C21.9558 1.375 28 6.66364 28 13.1875Z" fill="black"/>
<path fill-rule="evenodd" clip-rule="evenodd" d="M29 13.1875C29 20.1946 22.5081 25.875 14.5 25.875C6.49187 25.875 0 20.1946 0 13.1875C0 6.18039 6.49187 0.5 14.5 0.5C22.5081 0.5 29 6.18039 29 13.1875ZM14.5 25C21.9558 25 28 19.7114 28 13.1875C28 6.66364 21.9558 1.375 14.5 1.375C7.04416 1.375 1 6.66364 1 13.1875C1 19.7114 7.04416 25 14.5 25Z" fill="black"/>
<path fill-rule="evenodd" clip-rule="evenodd" d="M2 13.625C1.72386 13.625 1.5 13.4291 1.5 13.1875C1.5 6.90526 7.3203 1.8125 14.5 1.8125C14.7761 1.8125 15 2.00838 15 2.25C15 2.49162 14.7761 2.6875 14.5 2.6875C7.87259 2.6875 2.5 7.38851 2.5 13.1875C2.5 13.4291 2.27614 13.625 2 13.625Z" fill="black"/>
<path fill-rule="evenodd" clip-rule="evenodd" d="M27 12.75C27.2761 12.75 27.5 12.9459 27.5 13.1875C27.5 19.4697 21.6797 24.5625 14.5 24.5625C14.2239 24.5625 14 24.3666 14 24.125C14 23.8834 14.2239 23.6875 14.5 23.6875C21.1274 23.6875 26.5 18.9865 26.5 13.1875C26.5 12.9459 26.7239 12.75 27 12.75Z" fill="black"/>
<path d="M24.5 13.1875C24.5 18.02 20.0228 21.9375 14.5 21.9375C8.97715 21.9375 4.5 18.02 4.5 13.1875C4.5 8.35501 8.97715 4.4375 14.5 4.4375C20.0228 4.4375 24.5 8.35501 24.5 13.1875Z" fill="#484848"/>
<path fill-rule="evenodd" clip-rule="evenodd" d="M25.5 13.1875C25.5 18.5032 20.5751 22.8125 14.5 22.8125C8.42487 22.8125 3.5 18.5032 3.5 13.1875C3.5 7.87176 8.42487 3.5625 14.5 3.5625C20.5751 3.5625 25.5 7.87176 25.5 13.1875ZM14.5 21.9375C20.0228 21.9375 24.5 18.02 24.5 13.1875C24.5 8.35501 20.0228 4.4375 14.5 4.4375C8.97715 4.4375 4.5 8.35501 4.5 13.1875C4.5 18.02 8.97715 21.9375 14.5 21.9375Z" fill="black"/>
<path fill-rule="evenodd" clip-rule="evenodd" d="M14.5 20.625C19.1944 20.625 23 17.2951 23 13.1875C23 12.9459 23.2239 12.75 23.5 12.75C23.7761 12.75 24 12.9459 24 13.1875C24 17.7784 19.7467 21.5 14.5 21.5C14.2239 21.5 14 21.3041 14 21.0625C14 20.8209 14.2239 20.625 14.5 20.625Z" fill="black"/>
<path fill-rule="evenodd" clip-rule="evenodd" d="M14.5 5.75C9.80558 5.75 6 9.07988 6 13.1875C6 13.4291 5.77614 13.625 5.5 13.625C5.22386 13.625 5 13.4291 5 13.1875C5 8.59663 9.25329 4.875 14.5 4.875C14.7761 4.875 15 5.07088 15 5.3125C15 5.55412 14.7761 5.75 14.5 5.75Z" fill="black"/>
</svg>
