<svg width="30" height="21" viewBox="0 0 30 21" fill="none" xmlns="http://www.w3.org/2000/svg">
<path d="M11.0241 16.6205C4.99283 14.777 1.9772 13.8552 1.19264 12.4515C0.514821 11.2388 0.514821 9.7612 1.19264 8.54847C1.9772 7.14475 4.99283 6.22301 11.0241 4.37952L20.9792 1.33667C23.7806 0.480424 25.1812 0.0523017 26.2922 0.352122C27.2651 0.61468 28.1031 1.23478 28.6385 2.08844C29.25 3.06325 29.25 4.52788 29.25 7.45715L29.25 13.5429C29.25 16.4721 29.25 17.9368 28.6385 18.9116C28.1031 19.7652 27.2651 20.3853 26.2922 20.6479C25.1812 20.9477 23.7806 20.5196 20.9792 19.6633L11.0241 16.6205Z" fill="#8ED1A2"/>
</svg>
