<svg width="77" height="52" viewBox="0 0 77 52" fill="none" xmlns="http://www.w3.org/2000/svg">
<path d="M63.6274 2.62744C64.732 2.62744 65.6274 3.52287 65.6274 4.62744L65.6274 16.6274C65.6274 17.732 64.732 18.6274 63.6274 18.6274L13.6274 18.6274C12.5229 18.6274 11.6274 17.732 11.6274 16.6274L11.6274 4.62744C11.6274 3.52287 12.5229 2.62744 13.6274 2.62744L63.6274 2.62744Z" fill="#C52229"/>
<path fill-rule="evenodd" clip-rule="evenodd" d="M67.6274 4.62744L67.6274 16.6274C67.6274 18.8366 65.8366 20.6274 63.6274 20.6274L13.6274 20.6274C11.4183 20.6274 9.62744 18.8366 9.62744 16.6274L9.62744 4.62744C9.62744 2.4183 11.4183 0.627439 13.6274 0.627439L63.6274 0.627441C65.8366 0.627441 67.6274 2.4183 67.6274 4.62744ZM65.6274 4.62744C65.6274 3.52287 64.732 2.62744 63.6274 2.62744L13.6274 2.62744C12.5229 2.62744 11.6274 3.52287 11.6274 4.62744L11.6274 16.6274C11.6274 17.732 12.5229 18.6274 13.6274 18.6274L63.6274 18.6274C64.732 18.6274 65.6274 17.732 65.6274 16.6274L65.6274 4.62744Z" fill="#9B0F15"/>
<path fill-rule="evenodd" clip-rule="evenodd" d="M13.4445 3.62744C13.4445 3.07516 13.8922 2.62744 14.4445 2.62744H63.3771C63.9294 2.62744 64.3771 3.07516 64.3771 3.62744C64.3771 4.17973 63.9294 4.62744 63.3771 4.62744H14.4445C13.8922 4.62744 13.4445 4.17973 13.4445 3.62744Z" fill="#DF3840"/>
<path fill-rule="evenodd" clip-rule="evenodd" d="M13.0647 9.43994C13.0647 8.88766 13.5124 8.43994 14.0647 8.43994H62.9974C63.5497 8.43994 63.9974 8.88766 63.9974 9.43994C63.9974 9.99223 63.5497 10.4399 62.9974 10.4399H14.0647C13.5124 10.4399 13.0647 9.99223 13.0647 9.43994Z" fill="#AF1B22"/>
<path fill-rule="evenodd" clip-rule="evenodd" d="M13.0647 5.75244C13.0647 5.20016 13.5124 4.75244 14.0647 4.75244H62.9974C63.5497 4.75244 63.9974 5.20016 63.9974 5.75244C63.9974 6.30473 63.5497 6.75244 62.9974 6.75244H14.0647C13.5124 6.75244 13.0647 6.30473 13.0647 5.75244Z" fill="#AF1B22"/>
<path fill-rule="evenodd" clip-rule="evenodd" d="M13.0647 13.0649C13.0647 12.5127 13.5124 12.0649 14.0647 12.0649H62.9974C63.5497 12.0649 63.9974 12.5127 63.9974 13.0649C63.9974 13.6172 63.5497 14.0649 62.9974 14.0649H14.0647C13.5124 14.0649 13.0647 13.6172 13.0647 13.0649Z" fill="#AF1B22"/>
<path fill-rule="evenodd" clip-rule="evenodd" d="M13.4445 16.3774C13.4445 15.8252 13.8922 15.3774 14.4445 15.3774H63.3772C63.9295 15.3774 64.3772 15.8252 64.3772 16.3774C64.3772 16.9297 63.9295 17.3774 63.3772 17.3774H14.4445C13.8922 17.3774 13.4445 16.9297 13.4445 16.3774Z" fill="#AF1B22"/>
<path d="M14.7279 3.41421C13.9469 2.63316 12.6805 2.63317 11.8995 3.41421L3.41421 11.8995C2.63316 12.6805 2.63316 13.9469 3.41421 14.7279L37.5269 48.8406C38.308 49.6217 39.5743 49.6217 40.3553 48.8406L48.8406 40.3553C49.6217 39.5743 49.6217 38.308 48.8406 37.5269L14.7279 3.41421Z" fill="#F1333B"/>
<path fill-rule="evenodd" clip-rule="evenodd" d="M10.4853 2L2 10.4853C0.4379 12.0474 0.4379 14.58 2 16.1421L36.1127 50.2548C37.6748 51.8169 40.2075 51.8169 41.7696 50.2548L50.2548 41.7696C51.8169 40.2075 51.8169 37.6748 50.2548 36.1127L16.1421 2C14.58 0.437897 12.0474 0.437901 10.4853 2ZM11.8995 3.41421C12.6805 2.63316 13.9469 2.63316 14.7279 3.41421L48.8406 37.5269C49.6217 38.308 49.6217 39.5743 48.8406 40.3553L40.3553 48.8406C39.5743 49.6217 38.308 49.6217 37.5269 48.8406L3.41421 14.7279C2.63316 13.9469 2.63316 12.6805 3.41421 11.8995L11.8995 3.41421Z" fill="#9B0F15"/>
<path d="M62.5272 3.45328C63.3049 2.6539 64.5862 2.64511 65.3748 3.43375L73.8599 11.9188C74.6333 12.6922 74.6419 13.9436 73.8791 14.7277L40.7276 48.8015C39.9499 49.6009 38.6686 49.6097 37.8799 48.8211L29.3949 40.3361C28.6214 39.5626 28.6128 38.3112 29.3756 37.5272L62.5272 3.45328Z" fill="#F1333B"/>
<path fill-rule="evenodd" clip-rule="evenodd" d="M66.789 2.01953L75.2741 10.5045C76.821 12.0515 76.8382 14.5543 75.3126 16.1223L42.1611 50.1962C40.6056 51.795 38.043 51.8126 36.4657 50.2353L27.9807 41.7503C26.4337 40.2033 26.4166 37.7005 27.9421 36.1325L61.0937 2.05861C62.6491 0.459842 65.2118 0.44226 66.789 2.01953ZM65.3748 3.43375C64.5862 2.64511 63.3049 2.6539 62.5271 3.45328L29.3756 37.5272C28.6128 38.3112 28.6214 39.5626 29.3949 40.3361L37.8799 48.8211C38.6686 49.6097 39.9499 49.6009 40.7276 48.8015L73.8791 14.7277C74.6419 13.9436 74.6333 12.6922 73.8599 11.9188L65.3748 3.43375Z" fill="#9B0F15"/>
<path fill-rule="evenodd" clip-rule="evenodd" d="M64.1436 4.29211C64.5359 4.68085 64.5388 5.31401 64.15 5.70631L43.7125 26.3313C43.3238 26.7236 42.6906 26.7265 42.2983 26.3378C41.906 25.949 41.9031 25.3159 42.2919 24.9236L62.7294 4.29857C63.1181 3.90627 63.7513 3.90338 64.1436 4.29211Z" fill="#FE666D"/>
<path fill-rule="evenodd" clip-rule="evenodd" d="M3.67009 12.6703C4.06061 12.2798 4.69378 12.2798 5.0843 12.6703L18.0843 25.6703C18.4748 26.0609 18.4748 26.694 18.0843 27.0845C17.6938 27.4751 17.0606 27.4751 16.6701 27.0845L3.67009 14.0845C3.27957 13.694 3.27957 13.0609 3.67009 12.6703Z" fill="#FE666D"/>
<path d="M68.2113 10.0266C67.8109 10.427 67.1696 10.4349 66.779 10.0443C66.3884 9.65365 66.3963 9.01237 66.7967 8.61197C67.1971 8.21156 67.8384 8.20364 68.229 8.59428C68.6196 8.98493 68.6117 9.6262 68.2113 10.0266Z" fill="#DB1B24"/>
<path d="M65.1698 12.5022C64.6717 13.0003 63.874 13.0101 63.3881 12.5242C62.9022 12.0383 62.912 11.2406 63.4101 10.7425C63.9082 10.2445 64.7059 10.2346 65.1918 10.7205C65.6777 11.2065 65.6678 12.0041 65.1698 12.5022Z" fill="#DB1B24"/>
<path d="M68.4104 13.2849C68.1613 13.5339 67.7625 13.5388 67.5195 13.2959C67.2766 13.0529 67.2815 12.6541 67.5305 12.405C67.7796 12.156 68.1784 12.1511 68.4214 12.394C68.6643 12.637 68.6594 13.0358 68.4104 13.2849Z" fill="#DB1B24"/>
<path d="M61.2067 21.733C60.9576 21.982 60.5588 21.9869 60.3158 21.744C60.0729 21.501 60.0778 21.1022 60.3268 20.8531C60.5759 20.6041 60.9747 20.5992 61.2177 20.8421C61.4606 21.0851 61.4557 21.4839 61.2067 21.733Z" fill="#DB1B24"/>
<path d="M64.8229 15.9925C64.5738 16.2415 64.175 16.2465 63.932 16.0035C63.6891 15.7605 63.694 15.3617 63.943 15.1127C64.1921 14.8636 64.5909 14.8587 64.8339 15.1017C65.0768 15.3446 65.0719 15.7435 64.8229 15.9925Z" fill="#DB1B24"/>
<path d="M61.1957 25.1765C60.9466 25.4255 60.5478 25.4304 60.3048 25.1875C60.0619 24.9445 60.0668 24.5457 60.3158 24.2966C60.5649 24.0476 60.9637 24.0427 61.2067 24.2856C61.4496 24.5286 61.4447 24.9274 61.1957 25.1765Z" fill="#DB1B24"/>
<path d="M62.1085 15.2323C61.8594 15.4813 61.4606 15.4863 61.2176 15.2433C60.9747 15.0003 60.9796 14.6015 61.2286 14.3525C61.4777 14.1034 61.8765 14.0985 62.1195 14.3415C62.3624 14.5844 62.3575 14.9833 62.1085 15.2323Z" fill="#DB1B24"/>
<path d="M64.1375 22.3571C63.8884 22.6062 63.4896 22.6111 63.2466 22.3681C63.0037 22.1252 63.0086 21.7263 63.2576 21.4773C63.5067 21.2282 63.9055 21.2233 64.1485 21.4663C64.3914 21.7092 64.3865 22.1081 64.1375 22.3571Z" fill="#DB1B24"/>
<path d="M71.4295 11.7063C71.1805 11.9553 70.7816 11.9603 70.5387 11.7173C70.2957 11.4743 70.3006 11.0755 70.5497 10.8265C70.7987 10.5774 71.1976 10.5725 71.4405 10.8155C71.6835 11.0584 71.6786 11.4573 71.4295 11.7063Z" fill="#DB1B24"/>
<path d="M68.1313 16.9314C67.726 17.3367 67.0769 17.3447 66.6815 16.9493C66.2861 16.5539 66.2941 15.9048 66.6994 15.4995C67.1047 15.0942 67.7538 15.0862 68.1492 15.4816C68.5446 15.877 68.5366 16.5261 68.1313 16.9314Z" fill="#DB1B24"/>
<path d="M71.9948 14.4997C71.5895 14.905 70.9404 14.913 70.545 14.5176C70.1496 14.1222 70.1576 13.4731 70.5629 13.0678C70.9682 12.6625 71.6173 12.6545 72.0127 13.0499C72.4081 13.4453 72.4001 14.0944 71.9948 14.4997Z" fill="#DB1B24"/>
<path d="M64.1682 19.511C63.7629 19.9163 63.1138 19.9243 62.7184 19.5289C62.323 19.1335 62.331 18.4844 62.7363 18.0791C63.1416 17.6738 63.7907 17.6658 64.1861 18.0612C64.5815 18.4566 64.5735 19.1057 64.1682 19.511Z" fill="#DB1B24"/>
<path d="M66.978 19.9513C66.729 20.2003 66.3302 20.2053 66.0872 19.9623C65.8442 19.7193 65.8492 19.3205 66.0982 19.0715C66.3472 18.8224 66.7461 18.8175 66.989 19.0605C67.232 19.3034 67.2271 19.7023 66.978 19.9513Z" fill="#DB1B24"/>
</svg>
