<svg width="40" height="40" viewBox="0 0 40 40" fill="none" xmlns="http://www.w3.org/2000/svg">
<path d="M23.6801 2.80099H22.6801V2.85087L22.6851 2.9005L23.6801 2.80099ZM23.6801 2.80097H24.6801V2.7511L24.6751 2.70147L23.6801 2.80097ZM23.9101 5.10109L22.9151 5.20059L22.9151 5.20059L23.9101 5.10109ZM27.1667 6.45L26.5334 5.67604L26.5334 5.67604L27.1667 6.45ZM28.9557 4.98625L28.3224 4.21229L28.3224 4.21229L28.9557 4.98625ZM31.6364 5.11995L30.9293 5.82706L30.9293 5.82706L31.6364 5.11995ZM34.38 7.86356L35.0871 7.15646L35.0871 7.15646L34.38 7.86356ZM35.3116 9.16078L36.3103 9.11097L36.3103 9.11096L35.3116 9.16078ZM34.5137 10.5443L35.2876 11.1775L35.2876 11.1775L34.5137 10.5443ZM33.0499 12.3333L32.2759 11.7001L32.2759 11.7001L33.0499 12.3333ZM34.3988 15.5899L34.2993 16.5849L34.2993 16.5849L34.3988 15.5899ZM36.699 15.8199L36.7985 14.8249L36.7985 14.8249L36.699 15.8199ZM38.2415 16.234L37.5 16.905L37.5 16.905L38.2415 16.234ZM38.2415 23.266L37.5 22.595L37.5 22.595L38.2415 23.266ZM36.699 23.6801L36.7985 24.6751L36.7985 24.6751L36.699 23.6801ZM34.3995 23.91L34.3 22.915L34.3 22.915L34.3995 23.91ZM33.0506 27.1666L33.8246 26.5334L33.8246 26.5334L33.0506 27.1666ZM34.5138 28.9549L33.7398 29.5882L33.7398 29.5882L34.5138 28.9549ZM35.3116 30.3384L36.3104 30.3882L36.3104 30.3882L35.3116 30.3384ZM34.3801 31.6356L35.0872 32.3427L35.0872 32.3427L34.3801 31.6356ZM31.6365 34.3792L30.9294 33.6721L30.9294 33.6721L31.6365 34.3792ZM30.3392 35.3108L30.389 36.3095L30.3891 36.3095L30.3392 35.3108ZM28.9558 34.5129L29.589 33.739L29.589 33.739L28.9558 34.5129ZM27.1667 33.0492L26.5335 33.8231L26.5335 33.8231L27.1667 33.0492ZM23.9102 34.3981L22.9152 34.2986L22.9152 34.2986L23.9102 34.3981ZM23.6801 36.699L24.6751 36.7985L24.6751 36.7985L23.6801 36.699ZM23.266 38.2415L22.595 37.5L22.595 37.5L23.266 38.2415ZM16.234 38.2415L16.905 37.5L16.905 37.5L16.234 38.2415ZM15.8199 36.699L14.8249 36.7985L14.8249 36.7985L15.8199 36.699ZM15.5899 34.3988L14.5948 34.4983L14.5948 34.4983L15.5899 34.3988ZM14.792 31.7195L15.1747 30.7956L15.1747 30.7956L14.792 31.7195ZM12.3333 33.0499L11.7001 32.2759L11.7001 32.2759L12.3333 33.0499ZM10.5442 34.5138L9.91093 33.7398L9.91093 33.7398L10.5442 34.5138ZM9.16069 35.3116L9.11088 36.3104L9.11089 36.3104L9.16069 35.3116ZM7.86348 34.3801L7.15637 35.0872L7.15637 35.0872L7.86348 34.3801ZM5.11987 31.6365L5.82697 30.9294L5.82697 30.9294L5.11987 31.6365ZM4.18829 30.3392L3.18953 30.3891L3.18953 30.3891L4.18829 30.3392ZM4.98617 28.9558L5.76012 29.589L5.76012 29.589L4.98617 28.9558ZM6.44999 27.1667L7.22394 27.7999L7.22394 27.7999L6.44999 27.1667ZM7.78037 24.708L6.85649 25.0906L6.85649 25.0906L7.78037 24.708ZM5.10108 23.9101L5.20058 22.9151L5.20058 22.9151L5.10108 23.9101ZM2.80099 23.6801L2.9005 22.6851L2.9005 22.6851L2.80099 23.6801ZM1.25855 16.234L0.517096 15.563L0.517094 15.563L1.25855 16.234ZM2.80099 15.8199L2.70149 14.8249L2.70149 14.8249L2.80099 15.8199ZM5.10178 15.5898L5.00228 14.5948L5.00228 14.5948L5.10178 15.5898ZM7.78107 14.792L8.70495 15.1747L8.70495 15.1747L7.78107 14.792ZM6.45069 12.3333L5.67673 12.9665L5.67673 12.9665L6.45069 12.3333ZM4.98625 10.5434L4.2123 11.1766L4.2123 11.1766L4.98625 10.5434ZM5.11995 7.86271L4.41285 7.15561L4.41285 7.15561L5.11995 7.86271ZM7.86356 5.1191L7.15646 4.412L7.15646 4.412L7.86356 5.1191ZM10.5443 4.9854L11.1775 4.21145L11.1775 4.21145L10.5443 4.9854ZM12.3334 6.44926L12.9667 5.6753L12.9667 5.6753L12.3334 6.44926ZM15.59 5.10036L14.5949 5.00085L14.5949 5.00085L15.59 5.10036ZM15.8199 2.80099L16.8149 2.9005L16.8149 2.9005L15.8199 2.80099ZM16.234 1.25855L15.563 0.517094L15.563 0.517095L16.234 1.25855ZM23.266 1.25855L22.595 2L22.595 2L23.266 1.25855ZM24.6801 2.80099V2.80097H22.6801V2.80099H24.6801ZM24.9051 5.00158L24.6751 2.70149L22.6851 2.9005L22.9151 5.20059L24.9051 5.00158ZM25.0906 6.8565C25.2645 6.92853 25.22 7.07014 25.1328 6.72347C25.0452 6.37538 24.9902 5.85216 24.9051 5.00158L22.9151 5.20059C22.9934 5.98356 23.0609 6.68549 23.1932 7.21142C23.3259 7.73876 23.5986 8.40325 24.3253 8.70426L25.0906 6.8565ZM26.5334 5.67604C25.8718 6.21734 25.463 6.54843 25.1549 6.73264C24.8481 6.91611 24.9167 6.78447 25.0906 6.8565L24.3253 8.70426C25.052 9.00527 25.7147 8.72823 26.1814 8.44915C26.6468 8.17082 27.1909 7.72223 27.7999 7.22396L26.5334 5.67604ZM28.3224 4.21229L26.5334 5.67604L27.7999 7.22396L29.5889 5.76021L28.3224 4.21229ZM30.389 3.18962C29.9142 3.16594 29.5298 3.33642 29.2237 3.5273C28.9418 3.70307 28.6346 3.95687 28.3224 4.21229L29.5889 5.76021C29.9425 5.47092 30.1347 5.31618 30.2819 5.2244C30.4048 5.14773 30.3793 5.19162 30.2893 5.18714L30.389 3.18962ZM32.3435 4.41285C32.0583 4.12762 31.7779 3.84453 31.5149 3.64158C31.2293 3.42118 30.8637 3.2133 30.389 3.18962L30.2893 5.18714C30.1994 5.18265 30.1783 5.13643 30.2931 5.22496C30.4304 5.33093 30.6062 5.50403 30.9293 5.82706L32.3435 4.41285ZM35.0871 7.15646L32.3435 4.41285L30.9293 5.82706L33.6729 8.57067L35.0871 7.15646ZM36.3103 9.11096C36.2866 8.6362 36.0788 8.27064 35.8584 7.98503C35.6554 7.72202 35.3723 7.44168 35.0871 7.15646L33.6729 8.57067C33.9959 8.8937 34.169 9.06954 34.275 9.20687C34.3635 9.3216 34.3173 9.30052 34.3128 9.2106L36.3103 9.11096ZM35.2876 11.1775C35.5431 10.8653 35.7969 10.5582 35.9726 10.2763C36.1635 9.97016 36.334 9.58572 36.3103 9.11097L34.3128 9.21059C34.3083 9.12067 34.3522 9.09509 34.2755 9.21806C34.1838 9.36525 34.029 9.55744 33.7397 9.91101L35.2876 11.1775ZM33.8238 12.9666L35.2876 11.1775L33.7397 9.91101L32.2759 11.7001L33.8238 12.9666ZM32.6434 14.4094C32.7154 14.5832 32.5838 14.6519 32.7672 14.3451C32.9515 14.037 33.2825 13.6282 33.8238 12.9666L32.2759 11.7001C31.7777 12.3091 31.3291 12.8532 31.0507 13.3186C30.7717 13.7853 30.4946 14.448 30.7956 15.1747L32.6434 14.4094ZM34.4983 14.5948C33.6477 14.5098 33.1245 14.4548 32.7764 14.3672C32.4297 14.28 32.5714 14.2355 32.6434 14.4094L30.7956 15.1747C31.0966 15.9014 31.7611 16.1741 32.2885 16.3068C32.8144 16.4391 33.5163 16.5066 34.2993 16.5849L34.4983 14.5948ZM36.7985 14.8249L34.4983 14.5948L34.2993 16.5849L36.5995 16.8149L36.7985 14.8249ZM38.9829 15.563C38.6639 15.2105 38.2716 15.0592 37.9201 14.9777C37.5965 14.9027 37.1999 14.865 36.7985 14.8249L36.5995 16.8149C37.0541 16.8604 37.2994 16.8869 37.4684 16.9261C37.6095 16.9588 37.5604 16.9717 37.5 16.905L38.9829 15.563ZM39.5 17.81C39.5 17.4066 39.5019 17.0082 39.4595 16.6787C39.4134 16.3209 39.3019 15.9154 38.9829 15.563L37.5 16.905C37.4396 16.8382 37.4574 16.7906 37.4759 16.9344C37.4981 17.1064 37.5 17.3531 37.5 17.81H39.5ZM39.5 21.69V17.81H37.5V21.69H39.5ZM38.9829 23.937C39.3019 23.5846 39.4134 23.1791 39.4595 22.8213C39.5019 22.4918 39.5 22.0934 39.5 21.69H37.5C37.5 22.1469 37.4981 22.3936 37.4759 22.5656C37.4574 22.7094 37.4396 22.6618 37.5 22.595L38.9829 23.937ZM36.7985 24.6751C37.1999 24.635 37.5965 24.5973 37.9201 24.5223C38.2716 24.4408 38.6639 24.2895 38.9829 23.937L37.5 22.595C37.5604 22.5283 37.6095 22.5412 37.4684 22.5739C37.2994 22.6131 37.0541 22.6396 36.5995 22.6851L36.7985 24.6751ZM34.499 24.9051L36.7985 24.6751L36.5995 22.6851L34.3 22.915L34.499 24.9051ZM32.6441 25.0906C32.5721 25.2645 32.4305 25.2199 32.7771 25.1327C33.1252 25.0451 33.6484 24.9901 34.499 24.9051L34.3 22.915C33.517 22.9933 32.8151 23.0608 32.2892 23.1931C31.7618 23.3258 31.0973 23.5985 30.7963 24.3252L32.6441 25.0906ZM33.8246 26.5334C33.2833 25.8718 32.9522 25.4629 32.768 25.1549C32.5845 24.8481 32.7161 24.9167 32.6441 25.0906L30.7963 24.3252C30.4953 25.0519 30.7724 25.7146 31.0514 26.1813C31.3298 26.6468 31.7784 27.1908 32.2766 27.7998L33.8246 26.5334ZM35.2877 28.3217L33.8246 26.5334L32.2766 27.7998L33.7398 29.5882L35.2877 28.3217ZM36.3104 30.3882C36.3341 29.9134 36.1636 29.529 35.9727 29.2229C35.7969 28.941 35.5432 28.6339 35.2877 28.3217L33.7398 29.5882C34.0291 29.9417 34.1838 30.1339 34.2756 30.2811C34.3523 30.4041 34.3084 30.3785 34.3129 30.2886L36.3104 30.3882ZM35.0872 32.3427C35.3724 32.0575 35.6555 31.7771 35.8584 31.5141C36.0788 31.2285 36.2867 30.863 36.3104 30.3882L34.3129 30.2886C34.3174 30.1987 34.3636 30.1776 34.2751 30.2923C34.1691 30.4296 33.996 30.6055 33.673 30.9285L35.0872 32.3427ZM32.3436 35.0863L35.0872 32.3427L33.673 30.9285L30.9294 33.6721L32.3436 35.0863ZM30.3891 36.3095C30.8638 36.2859 31.2294 36.078 31.515 35.8576C31.778 35.6546 32.0583 35.3715 32.3436 35.0863L30.9294 33.6721C30.6063 33.9951 30.4305 34.1682 30.2931 34.2742C30.1784 34.3627 30.1995 34.3165 30.2894 34.312L30.3891 36.3095ZM28.3225 35.2869C28.6347 35.5423 28.9418 35.7961 29.2237 35.9719C29.5299 36.1627 29.9143 36.3332 30.389 36.3095L30.2894 34.312C30.3794 34.3075 30.4049 34.3514 30.282 34.2748C30.1348 34.183 29.9426 34.0282 29.589 33.739L28.3225 35.2869ZM26.5335 33.8231L28.3225 35.2869L29.589 33.739L27.8 32.2752L26.5335 33.8231ZM25.0907 32.6427C24.9168 32.7147 24.8482 32.5831 25.155 32.7665C25.4631 32.9507 25.8719 33.2818 26.5335 33.8231L27.8 32.2752C27.191 31.7769 26.6469 31.3283 26.1814 31.05C25.7147 30.7709 25.0521 30.4939 24.3254 30.7949L25.0907 32.6427ZM24.9052 34.4976C24.9903 33.647 25.0453 33.1238 25.1328 32.7757C25.2201 32.429 25.2646 32.5706 25.0907 32.6427L24.3254 30.7949C23.5987 31.0959 23.326 31.7604 23.1933 32.2877C23.061 32.8137 22.9935 33.5156 22.9152 34.2986L24.9052 34.4976ZM24.6751 36.7985L24.9052 34.4976L22.9152 34.2986L22.6851 36.5995L24.6751 36.7985ZM23.937 38.9829C24.2895 38.6639 24.4408 38.2716 24.5223 37.9201C24.5973 37.5965 24.635 37.1999 24.6751 36.7985L22.6851 36.5995C22.6396 37.0541 22.6131 37.2994 22.5739 37.4684C22.5412 37.6095 22.5283 37.5604 22.595 37.5L23.937 38.9829ZM21.69 39.5C22.0934 39.5 22.4918 39.5019 22.8213 39.4595C23.1791 39.4134 23.5846 39.3019 23.937 38.9829L22.595 37.5C22.6618 37.4396 22.7094 37.4574 22.5656 37.4759C22.3936 37.4981 22.1469 37.5 21.69 37.5V39.5ZM17.81 39.5H21.69V37.5H17.81V39.5ZM15.563 38.9829C15.9154 39.3019 16.3209 39.4134 16.6787 39.4595C17.0082 39.5019 17.4066 39.5 17.81 39.5V37.5C17.3531 37.5 17.1064 37.4981 16.9344 37.4759C16.7906 37.4574 16.8382 37.4396 16.905 37.5L15.563 38.9829ZM14.8249 36.7985C14.865 37.1999 14.9027 37.5965 14.9777 37.9201C15.0592 38.2716 15.2105 38.6639 15.563 38.9829L16.905 37.5C16.9717 37.5604 16.9588 37.6095 16.9261 37.4684C16.8869 37.2994 16.8604 37.0541 16.8149 36.5995L14.8249 36.7985ZM14.5948 34.4983L14.8249 36.7985L16.8149 36.5995L16.5849 34.2993L14.5948 34.4983ZM14.4094 32.6434C14.2355 32.5714 14.28 32.4298 14.3672 32.7764C14.4548 33.1245 14.5098 33.6477 14.5948 34.4983L16.5849 34.2993C16.5066 33.5163 16.4391 32.8144 16.3068 32.2885C16.1741 31.7611 15.9014 31.0967 15.1747 30.7956L14.4094 32.6434ZM12.9666 33.8239C13.6282 33.2826 14.037 32.9515 14.3451 32.7673C14.6519 32.5838 14.5832 32.7154 14.4094 32.6434L15.1747 30.7956C14.448 30.4946 13.7853 30.7717 13.3186 31.0507C12.8532 31.3291 12.3091 31.7777 11.7001 32.2759L12.9666 33.8239ZM11.1774 35.2877L12.9666 33.8239L11.7001 32.2759L9.91093 33.7398L11.1774 35.2877ZM9.11089 36.3104C9.58564 36.3341 9.97008 36.1636 10.2762 35.9727C10.5581 35.7969 10.8652 35.5432 11.1774 35.2877L9.91093 33.7398C9.55736 34.0291 9.36516 34.1838 9.21797 34.2756C9.095 34.3523 9.12058 34.3084 9.2105 34.3129L9.11089 36.3104ZM7.15637 35.0872C7.44159 35.3724 7.72194 35.6555 7.98495 35.8584C8.27055 36.0788 8.63612 36.2867 9.11088 36.3104L9.21051 34.3129C9.30043 34.3174 9.32152 34.3636 9.20679 34.2751C9.06946 34.1691 8.89362 33.996 8.57058 33.673L7.15637 35.0872ZM4.41276 32.3436L7.15637 35.0872L8.57058 33.673L5.82697 30.9294L4.41276 32.3436ZM3.18953 30.3891C3.21321 30.8638 3.4211 31.2294 3.64149 31.515C3.84444 31.778 4.12754 32.0583 4.41276 32.3436L5.82697 30.9294C5.50394 30.6063 5.33085 30.4305 5.22487 30.2931C5.13634 30.1784 5.18257 30.1995 5.18705 30.2894L3.18953 30.3891ZM4.21221 28.3225C3.95678 28.6347 3.70299 28.9418 3.52721 29.2237C3.33633 29.5299 3.16586 29.9143 3.18953 30.3891L5.18705 30.2894C5.19154 30.3793 5.14764 30.4049 5.22432 30.282C5.3161 30.1348 5.47084 29.9426 5.76012 29.589L4.21221 28.3225ZM5.67603 26.5334L4.21221 28.3225L5.76012 29.589L7.22394 27.7999L5.67603 26.5334ZM6.85649 25.0906C6.78446 24.9167 6.91609 24.8481 6.73263 25.1549C6.54842 25.463 6.21733 25.8718 5.67603 26.5334L7.22394 27.7999C7.72222 27.1909 8.17081 26.6468 8.44914 26.1814C8.72822 25.7147 9.00526 25.052 8.70425 24.3253L6.85649 25.0906ZM5.00157 24.9051C5.85215 24.9902 6.37537 25.0452 6.72346 25.1328C7.07013 25.22 6.92851 25.2645 6.85649 25.0906L8.70425 24.3253C8.40324 23.5986 7.73875 23.3259 7.2114 23.1932C6.68547 23.0609 5.98355 22.9934 5.20058 22.9151L5.00157 24.9051ZM2.70149 24.6751L5.00157 24.9051L5.20058 22.9151L2.9005 22.6851L2.70149 24.6751ZM0.517094 23.937C0.836055 24.2895 1.22844 24.4408 1.57987 24.5223C1.9035 24.5973 2.30013 24.635 2.70149 24.6751L2.9005 22.6851C2.44593 22.6396 2.20061 22.6131 2.03163 22.5739C1.89046 22.5412 1.93959 22.5283 2 22.595L0.517094 23.937ZM0 21.69C0 22.0934 -0.00194269 22.4918 0.0405215 22.8213C0.0866349 23.1791 0.198134 23.5846 0.517094 23.937L2 22.595C2.06041 22.6618 2.04264 22.7094 2.02412 22.5656C2.00194 22.3936 2 22.1469 2 21.69H0ZM0 17.81V21.69H2V17.81H0ZM0.517094 15.563C0.198134 15.9154 0.0866349 16.3209 0.0405216 16.6787C-0.00194269 17.0082 0 17.4066 0 17.81H2C2 17.3531 2.00194 17.1064 2.02412 16.9344C2.04264 16.7906 2.06041 16.8382 2 16.905L0.517094 15.563ZM2.70149 14.8249C2.30013 14.865 1.9035 14.9027 1.57987 14.9777C1.22844 15.0592 0.836056 15.2105 0.517096 15.563L2 16.905C1.93959 16.9717 1.89046 16.9588 2.03163 16.9261C2.20061 16.8869 2.44593 16.8604 2.9005 16.8149L2.70149 14.8249ZM5.00228 14.5948L2.70149 14.8249L2.9005 16.8149L5.20129 16.5849L5.00228 14.5948ZM6.85719 14.4093C6.92922 14.2354 7.07083 14.28 6.72416 14.3672C6.37608 14.4547 5.85285 14.5097 5.00228 14.5948L5.20129 16.5849C5.98425 16.5066 6.68618 16.439 7.21211 16.3067C7.73945 16.1741 8.40394 15.9014 8.70495 15.1747L6.85719 14.4093ZM5.67673 12.9665C6.21803 13.6281 6.54912 14.037 6.73334 14.345C6.9168 14.6518 6.78517 14.5832 6.85719 14.4093L8.70495 15.1747C9.00596 14.448 8.72893 13.7853 8.44985 13.3186C8.17151 12.8531 7.72292 12.309 7.22465 11.7L5.67673 12.9665ZM4.2123 11.1766L5.67673 12.9665L7.22465 11.7L5.76021 9.91016L4.2123 11.1766ZM3.18962 9.11012C3.16594 9.58487 3.33642 9.96931 3.5273 10.2754C3.70308 10.5573 3.95687 10.8645 4.2123 11.1766L5.76021 9.91016C5.47092 9.55659 5.31618 9.3644 5.2244 9.21721C5.14773 9.09424 5.19162 9.11982 5.18714 9.20974L3.18962 9.11012ZM4.41285 7.15561C4.12762 7.44083 3.84453 7.72118 3.64158 7.98418C3.42118 8.26979 3.2133 8.63536 3.18962 9.11012L5.18714 9.20974C5.18265 9.29967 5.13643 9.32075 5.22496 9.20602C5.33093 9.0687 5.50403 8.89285 5.82706 8.56982L4.41285 7.15561ZM7.15646 4.412L4.41285 7.15561L5.82706 8.56982L8.57067 5.82621L7.15646 4.412ZM9.11097 3.18877C8.63621 3.21245 8.27064 3.42033 7.98503 3.64073C7.72202 3.84368 7.44168 4.12677 7.15646 4.412L8.57067 5.82621C8.8937 5.50318 9.06955 5.33008 9.20687 5.22411C9.3216 5.13558 9.30052 5.1818 9.21059 5.18629L9.11097 3.18877ZM11.1775 4.21145C10.8653 3.95602 10.5582 3.70223 10.2763 3.52645C9.97016 3.33557 9.58572 3.16509 9.11097 3.18877L9.21059 5.18629C9.12067 5.19077 9.09509 5.14688 9.21806 5.22355C9.36525 5.31533 9.55744 5.47007 9.91101 5.75936L11.1775 4.21145ZM12.9667 5.6753L11.1775 4.21145L9.91101 5.75936L11.7002 7.22322L12.9667 5.6753ZM14.4094 6.85576C14.5833 6.78374 14.652 6.91537 14.3452 6.73191C14.0371 6.5477 13.6282 6.21661 12.9667 5.6753L11.7002 7.22322C12.3092 7.72149 12.8533 8.17009 13.3187 8.44842C13.7854 8.7275 14.4481 9.00453 15.1748 8.70352L14.4094 6.85576ZM14.5949 5.00085C14.5099 5.85142 14.4549 6.37465 14.3673 6.72273C14.2801 7.0694 14.2355 6.92779 14.4094 6.85576L15.1748 8.70352C15.9015 8.40251 16.1742 7.73803 16.3069 7.21068C16.4392 6.68475 16.5067 5.98282 16.585 5.19986L14.5949 5.00085ZM14.8249 2.70149L14.5949 5.00085L16.585 5.19986L16.8149 2.9005L14.8249 2.70149ZM15.563 0.517095C15.2105 0.836056 15.0592 1.22844 14.9777 1.57987C14.9027 1.9035 14.865 2.30012 14.8249 2.70149L16.8149 2.9005C16.8604 2.44593 16.8869 2.20061 16.9261 2.03163C16.9588 1.89046 16.9717 1.93959 16.905 2L15.563 0.517095ZM17.81 0C17.4066 0 17.0082 -0.00194269 16.6787 0.0405215C16.3209 0.0866349 15.9154 0.198134 15.563 0.517094L16.905 2C16.8382 2.06041 16.7906 2.04264 16.9344 2.02412C17.1064 2.00194 17.3531 2 17.81 2V0ZM21.69 0H17.81V2H21.69V0ZM23.937 0.517094C23.5846 0.198134 23.1791 0.0866349 22.8213 0.0405216C22.4918 -0.00194269 22.0934 0 21.69 0V2C22.1469 2 22.3936 2.00194 22.5656 2.02412C22.7094 2.04264 22.6618 2.06041 22.595 2L23.937 0.517094ZM24.6751 2.70147C24.635 2.30011 24.5973 1.90349 24.5222 1.57987C24.4408 1.22843 24.2895 0.836053 23.937 0.517094L22.595 2C22.5283 1.93959 22.5412 1.89046 22.5739 2.03163C22.6131 2.2006 22.6396 2.44592 22.6851 2.90048L24.6751 2.70147ZM26.25 19.75C26.25 23.3399 23.3399 26.25 19.75 26.25V28.25C24.4444 28.25 28.25 24.4444 28.25 19.75H26.25ZM19.75 13.25C23.3399 13.25 26.25 16.1601 26.25 19.75H28.25C28.25 15.0556 24.4444 11.25 19.75 11.25V13.25ZM13.25 19.75C13.25 16.1601 16.1601 13.25 19.75 13.25V11.25C15.0556 11.25 11.25 15.0556 11.25 19.75H13.25ZM19.75 26.25C16.1601 26.25 13.25 23.3399 13.25 19.75H11.25C11.25 24.4444 15.0556 28.25 19.75 28.25V26.25Z" fill="black"/>
</svg>
