<svg width="70" height="70" viewBox="0 0 70 70" fill="none" xmlns="http://www.w3.org/2000/svg">
<path d="M67 35C67 52.6731 52.6731 67 35 67C17.3269 67 2.99999 52.6731 2.99999 35C2.99999 17.3269 17.3269 3 35 3C52.6731 3 67 17.3269 67 35Z" fill="#DCA16A"/>
<path fill-rule="evenodd" clip-rule="evenodd" d="M69.3704 35C69.3704 53.9822 53.9822 69.3704 35 69.3704C16.0178 69.3704 0.629623 53.9822 0.629623 35C0.629623 16.0178 16.0178 0.629639 35 0.629639C53.9822 0.629639 69.3704 16.0178 69.3704 35ZM35 67C52.6731 67 67 52.6731 67 35C67 17.3269 52.6731 3.00001 35 3.00001C17.3269 3.00001 2.99999 17.3269 2.99999 35C2.99999 52.6731 17.3269 67 35 67Z" fill="#C38144"/>
<path fill-rule="evenodd" clip-rule="evenodd" d="M5.37037 36.1852C4.71581 36.1852 4.18518 35.6546 4.18518 35C4.18518 17.9814 17.9814 4.18518 35 4.18518C35.6546 4.18518 36.1852 4.71581 36.1852 5.37037C36.1852 6.02493 35.6546 6.55555 35 6.55555C19.2906 6.55555 6.55555 19.2906 6.55555 35C6.55555 35.6546 6.02493 36.1852 5.37037 36.1852Z" fill="#F0B57F"/>
<path fill-rule="evenodd" clip-rule="evenodd" d="M64.6296 33.8148C65.2842 33.8148 65.8148 34.3454 65.8148 35C65.8148 52.0186 52.0185 65.8148 35 65.8148C34.3454 65.8148 33.8148 65.2842 33.8148 64.6296C33.8148 63.9751 34.3454 63.4444 35 63.4444C50.7094 63.4444 63.4444 50.7094 63.4444 35C63.4444 34.3454 63.9751 33.8148 64.6296 33.8148Z" fill="#CF945D"/>
<path d="M58.7037 35C58.7037 48.0912 48.0912 58.7037 35 58.7037C21.9088 58.7037 11.2963 48.0912 11.2963 35C11.2963 21.9088 21.9088 11.2963 35 11.2963C48.0912 11.2963 58.7037 21.9088 58.7037 35Z" fill="#F7BA82"/>
<path fill-rule="evenodd" clip-rule="evenodd" d="M61.0741 35C61.0741 49.4003 49.4003 61.0741 35 61.0741C20.5997 61.0741 8.92592 49.4003 8.92592 35C8.92592 20.5997 20.5997 8.9259 35 8.9259C49.4003 8.9259 61.0741 20.5997 61.0741 35ZM35 58.7037C48.0912 58.7037 58.7037 48.0912 58.7037 35C58.7037 21.9088 48.0912 11.2963 35 11.2963C21.9088 11.2963 11.2963 21.9088 11.2963 35C11.2963 48.0912 21.9088 58.7037 35 58.7037Z" fill="#C38144"/>
<path fill-rule="evenodd" clip-rule="evenodd" d="M35 55.1481C46.1275 55.1481 55.1481 46.1275 55.1481 35C55.1481 34.3454 55.6788 33.8148 56.3333 33.8148C56.9879 33.8148 57.5185 34.3454 57.5185 35C57.5185 47.4366 47.4366 57.5185 35 57.5185C34.3454 57.5185 33.8148 56.9879 33.8148 56.3333C33.8148 55.6787 34.3454 55.1481 35 55.1481Z" fill="#E6A66C"/>
<path fill-rule="evenodd" clip-rule="evenodd" d="M35 14.8519C23.8725 14.8519 14.8518 23.8725 14.8518 35C14.8518 35.6546 14.3212 36.1852 13.6667 36.1852C13.0121 36.1852 12.4815 35.6546 12.4815 35C12.4815 22.5634 22.5634 12.4815 35 12.4815C35.6546 12.4815 36.1852 13.0121 36.1852 13.6667C36.1852 14.3213 35.6546 14.8519 35 14.8519Z" fill="#FFD5AE"/>
</svg>
