<svg width="72" height="44" viewBox="0 0 72 44" fill="none" xmlns="http://www.w3.org/2000/svg">
<path d="M25.5826 2.97101C25.2212 2.3686 24.5701 2 23.8676 2H4.53238C2.97779 2 2.01756 3.69594 2.81739 5.02899L24.4174 41.029C24.7788 41.6314 25.4298 42 26.1324 42H45.4676C47.0222 42 47.9824 40.3041 47.1826 38.971L25.5826 2.97101Z" fill="#C52229"/>
<path fill-rule="evenodd" clip-rule="evenodd" d="M23.8676 0H4.53238C1.4232 0 -0.497253 3.39189 1.10241 6.05798L22.7024 42.058C23.4253 43.2628 24.7273 44 26.1324 44H45.4676C48.5768 44 50.4972 40.6081 48.8976 37.942L27.2976 1.94202C26.5747 0.737198 25.2727 0 23.8676 0ZM23.8676 2C24.5701 2 25.2212 2.3686 25.5826 2.97101L47.1826 38.971C47.9824 40.3041 47.0222 42 45.4676 42H26.1324C25.4299 42 24.7788 41.6314 24.4174 41.029L2.81739 5.02899C2.01756 3.69594 2.97779 2 4.53238 2H23.8676Z" fill="#9B0F15"/>
<path d="M46.4174 2.97101C46.7788 2.3686 47.4298 2 48.1324 2H67.4676C69.0222 2 69.9824 3.69594 69.1826 5.02899L47.5826 41.029C47.2211 41.6314 46.5701 42 45.8676 42H26.5324C24.9778 42 24.0176 40.3041 24.8174 38.971L46.4174 2.97101Z" fill="#F1333B"/>
<path fill-rule="evenodd" clip-rule="evenodd" d="M48.1324 0H67.4676C70.5768 0 72.4972 3.39189 70.8976 6.05798L49.2976 42.058C48.5747 43.2628 47.2727 44 45.8676 44H26.5324C23.4232 44 21.5027 40.6081 23.1024 37.942L44.7024 1.94202C45.4253 0.737198 46.7273 0 48.1324 0ZM48.1324 2C47.4299 2 46.7788 2.3686 46.4174 2.97101L24.8174 38.971C24.0176 40.3041 24.9778 42 26.5324 42H45.8676C46.5701 42 47.2212 41.6314 47.5826 41.029L69.1826 5.02899C69.9824 3.69594 69.0222 2 67.4676 2H48.1324Z" fill="#9B0F15"/>
<path fill-rule="evenodd" clip-rule="evenodd" d="M48.5021 3.13525C48.9797 3.41258 49.1421 4.02457 48.8648 4.50218L39.8648 20.0022C39.5875 20.4798 38.9755 20.6422 38.4979 20.3648C38.0203 20.0875 37.8579 19.4755 38.1352 18.9979L47.1352 3.49791C47.4125 3.0203 48.0245 2.85793 48.5021 3.13525Z" fill="#FE666D"/>
<path fill-rule="evenodd" clip-rule="evenodd" d="M4.49787 3.13525C4.02026 3.41258 3.85789 4.02457 4.13521 4.50218L13.1352 20.0022C13.4125 20.4798 14.0245 20.6422 14.5021 20.3648C14.9797 20.0875 15.1421 19.4755 14.8648 18.9979L5.86479 3.49791C5.58747 3.0203 4.97548 2.85793 4.49787 3.13525Z" fill="#DF3840"/>
<path d="M23.5 5.28125C23.5 5.98886 22.9404 6.5625 22.25 6.5625C21.5596 6.5625 21 5.98886 21 5.28125C21 4.57364 21.5596 4 22.25 4C22.9404 4 23.5 4.57364 23.5 5.28125Z" fill="#AA161D"/>
<path d="M19.1098 5.59375C19.1098 6.47395 18.4136 7.1875 17.5549 7.1875C16.6961 7.1875 16 6.47395 16 5.59375C16 4.71355 16.6961 4 17.5549 4C18.4136 4 19.1098 4.71355 19.1098 5.59375Z" fill="#AA161D"/>
<path d="M23 10.1562C23 11.0365 22.3039 11.75 21.4451 11.75C20.5864 11.75 19.8903 11.0365 19.8903 10.1562C19.8903 9.27605 20.5864 8.5625 21.4451 8.5625C22.3039 8.5625 23 9.27605 23 10.1562Z" fill="#AA161D"/>
<path d="M26.5549 7.98438C26.5549 8.42448 26.2068 8.78125 25.7774 8.78125C25.3481 8.78125 25 8.42448 25 7.98438C25 7.54427 25.3481 7.1875 25.7774 7.1875C26.2068 7.1875 26.5549 7.54427 26.5549 7.98438Z" fill="#AA161D"/>
<path d="M18.3323 9.35938C18.3323 9.79948 17.9842 10.1562 17.5549 10.1562C17.1255 10.1562 16.7774 9.79948 16.7774 9.35938C16.7774 8.91927 17.1255 8.5625 17.5549 8.5625C17.9842 8.5625 18.3323 8.91927 18.3323 9.35938Z" fill="#AA161D"/>
<path d="M14 4.48438C14 4.92448 13.6519 5.28125 13.2226 5.28125C12.7932 5.28125 12.4451 4.92448 12.4451 4.48438C12.4451 4.04427 12.7932 3.6875 13.2226 3.6875C13.6519 3.6875 14 4.04427 14 4.48438Z" fill="#AA161D"/>
<path d="M25.7774 13.5469C25.7774 13.987 25.4294 14.3438 25 14.3438C24.5706 14.3438 24.2226 13.987 24.2226 13.5469C24.2226 13.1068 24.5706 12.75 25 12.75C25.4294 12.75 25.7774 13.1068 25.7774 13.5469Z" fill="#AA161D"/>
<path d="M21.7774 14.3438C21.7774 14.7839 21.4294 15.1406 21 15.1406C20.5706 15.1406 20.2226 14.7839 20.2226 14.3438C20.2226 13.9036 20.5706 13.5469 21 13.5469C21.4294 13.5469 21.7774 13.9036 21.7774 14.3438Z" fill="#AA161D"/>
<path d="M29.5305 11.4531C29.5305 12.1694 28.964 12.75 28.2652 12.75C27.5665 12.75 27 12.1694 27 11.4531C27 10.7369 27.5665 10.1562 28.2652 10.1562C28.964 10.1562 29.5305 10.7369 29.5305 11.4531Z" fill="#AA161D"/>
<path d="M31.1799 15.1406C31.1799 15.5807 30.8318 15.9375 30.4024 15.9375C29.9731 15.9375 29.625 15.5807 29.625 15.1406C29.625 14.7005 29.9731 14.3438 30.4024 14.3438C30.8318 14.3438 31.1799 14.7005 31.1799 15.1406Z" fill="#AA161D"/>
</svg>
