<svg width="37" height="20" viewBox="0 0 37 20" fill="none" xmlns="http://www.w3.org/2000/svg">
<path d="M13.2913 1.42482C13.1106 1.16126 12.7851 1 12.4338 1H2.76619C1.98889 1 1.50878 1.74197 1.9087 2.32518L12.7087 18.0752C12.8894 18.3387 13.2149 18.5 13.5662 18.5H23.2338C24.0111 18.5 24.4912 17.758 24.0913 17.1748L13.2913 1.42482Z" fill="#3B3B3B"/>
<path fill-rule="evenodd" clip-rule="evenodd" d="M12.4338 0.125H2.76617C1.21158 0.125 0.251354 1.60895 1.05118 2.77537L11.8512 18.5254C12.2126 19.0525 12.8636 19.375 13.5662 19.375H23.2338C24.7884 19.375 25.7486 17.891 24.9488 16.7246L14.1488 0.974633C13.7873 0.447524 13.1363 0.125 12.4338 0.125ZM12.4338 1C12.7851 1 13.1106 1.16126 13.2913 1.42482L24.0913 17.1748C24.4912 17.758 24.0111 18.5 23.2338 18.5H13.5662C13.2149 18.5 12.8894 18.3387 12.7087 18.0752L1.90868 2.32518C1.50876 1.74197 1.98887 1 2.76617 1H12.4338Z" fill="black"/>
<path fill-rule="evenodd" clip-rule="evenodd" d="M2.74891 1.4966C2.51011 1.61793 2.42892 1.88568 2.56758 2.09463L7.06758 8.87588C7.20625 9.08484 7.51224 9.15587 7.75105 9.03454C7.98985 8.91322 8.07103 8.64547 7.93237 8.43652L3.43237 1.65527C3.29371 1.44631 2.98772 1.37528 2.74891 1.4966Z" fill="black"/>
<path d="M12.25 2.43555C12.25 2.74513 11.9702 2.99609 11.625 2.99609C11.2798 2.99609 11 2.74513 11 2.43555C11 2.12597 11.2798 1.875 11.625 1.875C11.9702 1.875 12.25 2.12597 12.25 2.43555Z" fill="black"/>
<path d="M10.0549 2.57227C10.0549 2.95735 9.70681 3.26953 9.27744 3.26953C8.84807 3.26953 8.5 2.95735 8.5 2.57227C8.5 2.18718 8.84807 1.875 9.27744 1.875C9.70681 1.875 10.0549 2.18718 10.0549 2.57227Z" fill="black"/>
<path d="M12 4.56836C12 4.95345 11.6519 5.26562 11.2226 5.26562C10.7932 5.26562 10.4451 4.95345 10.4451 4.56836C10.4451 4.18327 10.7932 3.87109 11.2226 3.87109C11.6519 3.87109 12 4.18327 12 4.56836Z" fill="black"/>
<path d="M13.7774 3.61816C13.7774 3.81071 13.6034 3.9668 13.3887 3.9668C13.174 3.9668 13 3.81071 13 3.61816C13 3.42562 13.174 3.26953 13.3887 3.26953C13.6034 3.26953 13.7774 3.42562 13.7774 3.61816Z" fill="black"/>
<path d="M9.66617 4.21973C9.66617 4.41227 9.49214 4.56836 9.27745 4.56836C9.06277 4.56836 8.88873 4.41227 8.88873 4.21973C8.88873 4.02718 9.06277 3.87109 9.27745 3.87109C9.49214 3.87109 9.66617 4.02718 9.66617 4.21973Z" fill="black"/>
<path d="M7.5 2.08691C7.5 2.27946 7.32597 2.43555 7.11128 2.43555C6.8966 2.43555 6.72256 2.27946 6.72256 2.08691C6.72256 1.89437 6.8966 1.73828 7.11128 1.73828C7.32597 1.73828 7.5 1.89437 7.5 2.08691Z" fill="black"/>
<path d="M13.3887 6.05176C13.3887 6.2443 13.2147 6.40039 13 6.40039C12.7853 6.40039 12.6113 6.2443 12.6113 6.05176C12.6113 5.85921 12.7853 5.70312 13 5.70312C13.2147 5.70312 13.3887 5.85921 13.3887 6.05176Z" fill="black"/>
<path d="M11.3887 6.40039C11.3887 6.59294 11.2147 6.74902 11 6.74902C10.7853 6.74902 10.6113 6.59294 10.6113 6.40039C10.6113 6.20785 10.7853 6.05176 11 6.05176C11.2147 6.05176 11.3887 6.20785 11.3887 6.40039Z" fill="black"/>
<path d="M15.2652 5.13574C15.2652 5.4491 14.982 5.70312 14.6326 5.70312C14.2832 5.70312 14 5.4491 14 5.13574C14 4.82239 14.2832 4.56836 14.6326 4.56836C14.982 4.56836 15.2652 4.82239 15.2652 5.13574Z" fill="black"/>
<path d="M16.0899 6.74902C16.0899 6.94157 15.9159 7.09766 15.7012 7.09766C15.4865 7.09766 15.3125 6.94157 15.3125 6.74902C15.3125 6.55648 15.4865 6.40039 15.7012 6.40039C15.9159 6.40039 16.0899 6.55648 16.0899 6.74902Z" fill="black"/>
<path d="M23.7087 1.42482C23.8894 1.16126 24.2149 1 24.5662 1H34.2338C35.0111 1 35.4912 1.74197 35.0913 2.32518L24.2913 18.0752C24.1106 18.3387 23.7851 18.5 23.4338 18.5H13.7662C12.9889 18.5 12.5088 17.758 12.9087 17.1748L23.7087 1.42482Z" fill="#3B3B3B"/>
<path fill-rule="evenodd" clip-rule="evenodd" d="M24.5662 0.125H34.2338C35.7884 0.125 36.7486 1.60895 35.9488 2.77537L25.1488 18.5254C24.7873 19.0525 24.1363 19.375 23.4338 19.375H13.7662C12.2116 19.375 11.2514 17.891 12.0512 16.7246L22.8512 0.974633C23.2126 0.447524 23.8637 0.125 24.5662 0.125ZM24.5662 1C24.2149 1 23.8894 1.16126 23.7087 1.42482L12.9087 17.1748C12.5088 17.758 12.9889 18.5 13.7662 18.5H23.4338C23.7851 18.5 24.1106 18.3387 24.2913 18.0752L35.0913 2.32518C35.4912 1.74197 35.0111 1 34.2338 1H24.5662Z" fill="black"/>
<path fill-rule="evenodd" clip-rule="evenodd" d="M24.7511 1.4966C24.9899 1.61793 25.071 1.88568 24.9324 2.09463L20.4324 8.87588C20.2937 9.08484 19.9877 9.15587 19.7489 9.03454C19.5101 8.91322 19.4289 8.64547 19.5676 8.43652L24.0676 1.65527C24.2063 1.44631 24.5123 1.37528 24.7511 1.4966Z" fill="black"/>
</svg>
