<svg xmlns="http://www.w3.org/2000/svg" width="45" height="45" fill="none" viewBox="0 0 45 45">
  <path fill="#8ED1A2" fill-rule="evenodd" d="M6.504 14.004c-.879.878-.879 2.293-.879 5.121V33.25c0 3.771 0 5.657 1.172 6.828 1.171 1.172 3.057 1.172 6.828 1.172h17.75c3.771 0 5.657 0 6.828-1.172 1.172-1.171 1.172-3.057 1.172-6.828V19.125c0-2.828 0-4.243-.879-5.121-.878-.879-2.293-.879-5.121-.879h-21.75c-2.828 0-4.243 0-5.121.879ZM22.5 29.875a3.625 3.625 0 1 0 0-7.25 3.625 3.625 0 0 0 0 7.25Zm5.625-3.625a5.627 5.627 0 0 1-4.625 5.536v3.839h-2v-3.839a5.627 5.627 0 0 1 1-11.161 5.625 5.625 0 0 1 5.625 5.625Z" clip-rule="evenodd"/>
  <path stroke="#8ED1A2" stroke-linecap="round" stroke-width="2" d="M30.938 15v0a8.833 8.833 0 0 0-3.804-8.795l-.7-.469a10.138 10.138 0 0 0-12.273.765l-1.655 1.433"/>
</svg>