<svg width="17" height="22" viewBox="0 0 17 22" fill="none" xmlns="http://www.w3.org/2000/svg">
<path fill-rule="evenodd" clip-rule="evenodd" d="M16.8555 20C16.8555 21.1046 15.96 22 14.8555 22H3.16016C2.05559 22 1.16016 21.1046 1.16016 20V17.6797C1.16016 17.1713 1.35377 16.682 1.70163 16.3112L7.21242 10.4377C7.91721 9.66672 8.36914 9.06557 8.62712 8.62253L8.63666 8.60632C8.87291 8.20921 8.90625 7.97449 8.90625 7.87109C8.90625 7.65737 8.87893 7.5324 8.85916 7.47106C8.85579 7.4606 8.85263 7.45193 8.8498 7.4448C8.81782 7.4393 8.76652 7.43359 8.69141 7.43359C8.54184 7.43359 8.47912 7.45881 8.46658 7.46431C8.4587 7.46777 8.45334 7.47101 8.44753 7.47542C8.44151 7.47998 8.42821 7.49099 8.40864 7.5142C8.34304 7.59313 8.21875 7.79161 8.21875 8.30469C8.21875 9.40926 7.32332 10.3047 6.21875 10.3047H2.82031C1.71574 10.3047 0.820312 9.40926 0.820312 8.30469C0.820312 6.93475 1.14893 5.64014 1.82308 4.46305L1.82986 4.45122C2.52181 3.26193 3.50013 2.33363 4.71935 1.68068C5.94916 1.01413 7.30903 0.703125 8.75 0.703125C10.8109 0.703125 12.7028 1.19875 14.1504 2.45798C15.6497 3.75502 16.3047 5.54704 16.3047 7.54297C16.3047 8.7432 15.9915 9.9071 15.4373 11.0155C14.8828 12.1246 13.9965 13.2999 12.8756 14.528C12.867 14.5374 12.8583 14.5467 12.8496 14.556L12.1728 15.2695H14.8555C15.96 15.2695 16.8555 16.165 16.8555 17.2695V20ZM7.51953 17.2695L11.3984 13.1797C12.4609 12.0156 13.2109 10.9961 13.6484 10.1211C14.0859 9.24609 14.3047 8.38672 14.3047 7.54297C14.3047 6.00391 13.8164 4.8125 12.8398 3.96875C11.8711 3.125 10.5078 2.70312 8.75 2.70312C7.60156 2.70312 6.57422 2.94922 5.66797 3.44141C4.76172 3.92578 4.05859 4.59766 3.55859 5.45703C3.40198 5.73049 3.27028 6.01304 3.1635 6.30469C2.93471 6.92959 2.82031 7.59626 2.82031 8.30469H6.21875C6.21875 7.44531 6.4375 6.75391 6.875 6.23047C7.32031 5.69922 7.92578 5.43359 8.69141 5.43359C9.40234 5.43359 9.94922 5.65234 10.332 6.08984C10.7148 6.51953 10.9062 7.11328 10.9062 7.87109C10.9062 8.42578 10.7227 9.01172 10.3555 9.62891C9.99609 10.2461 9.4375 10.9688 8.67969 11.7969L3.16016 17.6797V20H14.8555V17.2695H7.51953Z" fill="#81A5B0"/>
</svg>
