<svg width="149" height="194" viewBox="0 0 149 194" fill="none" xmlns="http://www.w3.org/2000/svg">
<path d="M0.152023 12.7584C12.1524 6.15406 25.3816 2.08551 39.0193 0.805063C52.6569 -0.475385 66.4123 1.05958 79.4322 5.31475C92.4522 9.56993 104.459 16.4546 114.708 25.5418C124.958 34.629 133.231 45.7249 139.015 58.1415C144.799 70.5581 147.97 84.0306 148.332 97.7235C148.694 111.416 146.24 125.038 141.12 137.743C136 150.448 128.325 161.965 118.571 171.581C108.816 181.198 97.1897 188.707 84.4128 193.645L78.4653 178.254C89.134 174.131 98.8419 167.861 106.987 159.831C115.132 151.802 121.541 142.184 125.816 131.576C130.091 120.967 132.14 109.593 131.838 98.1597C131.536 86.7261 128.888 75.4766 124.058 65.1088C119.228 54.7409 112.32 45.4758 103.762 37.888C95.2039 30.3002 85.1781 24.5515 74.3065 20.9984C63.4348 17.4453 51.9491 16.1636 40.5617 17.2328C29.1742 18.302 18.1278 21.6992 8.10753 27.2139L0.152023 12.7584Z" fill="#225941"/>
</svg>
