<svg width="84" height="24" viewBox="0 0 84 24" fill="none" xmlns="http://www.w3.org/2000/svg">
<path d="M5.7766 13.5528L2.72382 7.44721C2.39137 6.78231 2.87486 6 3.61824 6L17.0002 6C17.5525 6 18.0002 6.44771 18.0002 7L18.0002 21C18.0002 21.5523 17.5525 22 17.0002 22L3.61824 22C2.87485 22 2.39136 21.2177 2.72382 20.5528L5.7766 14.4472C5.91737 14.1657 5.91737 13.8343 5.7766 13.5528Z" fill="#C52229"/>
<path d="M78.2238 13.5528L81.2766 7.44721C81.609 6.78231 81.1256 6 80.3822 6L67.0002 6C66.4479 6 66.0002 6.44771 66.0002 7L66.0002 21C66.0002 21.5523 66.4479 22 67.0002 22L80.3822 22C81.1256 22 81.609 21.2177 81.2766 20.5528L78.2238 14.4472C78.083 14.1657 78.083 13.8343 78.2238 13.5528Z" fill="#C52229"/>
<path fill-rule="evenodd" clip-rule="evenodd" d="M3.76414 14L0.934959 8.34164C-0.0623857 6.34695 1.38808 4 3.61824 4L17.0002 4C18.6571 4 20.0002 5.34315 20.0002 7L20.0002 21C20.0002 22.6569 18.6571 24 17.0002 24L3.61824 24C1.38808 24 -0.0623863 21.653 0.934959 19.6584L3.76414 14ZM3.98717 14.4461C3.98737 14.4465 3.98756 14.4468 3.98775 14.4472L4.88219 14L3.98774 14.4472L3.98717 14.4461ZM80.2363 14L83.0655 8.34164C84.0628 6.34694 82.6123 4 80.3822 4L67.0002 4C65.3433 4 64.0002 5.34315 64.0002 7L64.0002 21C64.0002 22.6569 65.3433 24 67.0002 24L80.3822 24C82.6123 24 84.0628 21.6531 83.0654 19.6584L80.2363 14ZM81.2766 7.44721L78.2238 13.5528C78.083 13.8343 78.083 14.1657 78.2238 14.4472L81.2766 20.5528C81.609 21.2177 81.1255 22 80.3822 22L67.0002 22C66.4479 22 66.0002 21.5523 66.0002 21L66.0002 7C66.0002 6.44771 66.4479 6 67.0002 6L80.3822 6C81.1256 6 81.609 6.78231 81.2766 7.44721ZM2.72382 7.44721L5.7766 13.5528C5.91737 13.8343 5.91737 14.1657 5.7766 14.4472L2.72382 20.5528C2.39136 21.2177 2.87485 22 3.61824 22L17.0002 22C17.5525 22 18.0002 21.5523 18.0002 21L18.0002 7C18.0002 6.44771 17.5525 6 17.0002 6L3.61824 6C2.87485 6 2.39136 6.78231 2.72382 7.44721Z" fill="#9B0F15"/>
<path fill-rule="evenodd" clip-rule="evenodd" d="M4.1542 6.90433C4.33732 6.61376 4.65675 6.4375 5.00021 6.4375H9.25021C9.80249 6.4375 10.2502 6.88522 10.2502 7.4375C10.2502 7.98978 9.80249 8.4375 9.25021 8.4375H6.58695L8.65234 12.756C8.89063 13.2543 8.6799 13.8513 8.18166 14.0896C7.68343 14.3279 7.08636 14.1172 6.84807 13.619L4.09807 7.86896C3.94988 7.55911 3.97108 7.1949 4.1542 6.90433Z" fill="#DF3840"/>
<path d="M70.0002 17L70.0002 3C70.0002 2.44772 69.5525 2 69.0002 2L15.0002 2C14.4479 2 14.0002 2.44771 14.0002 3L14.0002 17C14.0002 17.5523 14.4479 18 15.0002 18L69.0002 18C69.5525 18 70.0002 17.5523 70.0002 17Z" fill="#F1333B"/>
<path fill-rule="evenodd" clip-rule="evenodd" d="M72.0002 3L72.0002 17C72.0002 18.6569 70.6571 20 69.0002 20L15.0002 20C13.3434 20 12.0002 18.6569 12.0002 17L12.0002 3C12.0002 1.34314 13.3433 -2.56397e-06 15.0002 -2.49155e-06L69.0002 -1.31134e-07C70.6571 -5.87107e-08 72.0002 1.34315 72.0002 3ZM70.0002 3L70.0002 17C70.0002 17.5523 69.5525 18 69.0002 18L15.0002 18C14.4479 18 14.0002 17.5523 14.0002 17L14.0002 3C14.0002 2.44771 14.4479 2 15.0002 2L69.0002 2C69.5525 2 70.0002 2.44772 70.0002 3Z" fill="#9B0F15"/>
<path d="M67.2375 10.3798C66.6713 10.3798 66.2122 9.9319 66.2122 9.37945C66.2122 8.827 66.6713 8.37915 67.2375 8.37915C67.8038 8.37915 68.2628 8.827 68.2628 9.37945C68.2628 9.9319 67.8038 10.3798 67.2375 10.3798Z" fill="#DB1B24"/>
<path d="M63.3363 9.97952C62.632 9.97952 62.061 9.42244 62.061 8.73524C62.061 8.04805 62.632 7.49097 63.3363 7.49097C64.0407 7.49097 64.6117 8.04805 64.6117 8.73524C64.6117 9.42244 64.0407 9.97952 63.3363 9.97952Z" fill="#DB1B24"/>
<path d="M65.0744 12.8244C64.7222 12.8244 64.4367 12.5458 64.4367 12.2022C64.4367 11.8586 64.7222 11.5801 65.0744 11.5801C65.4266 11.5801 65.7121 11.8586 65.7121 12.2022C65.7121 12.5458 65.4266 12.8244 65.0744 12.8244Z" fill="#DB1B24"/>
<path d="M63.974 6.24428C63.6218 6.24428 63.3363 5.96574 63.3363 5.62214C63.3363 5.27854 63.6218 5 63.974 5C64.3262 5 64.6117 5.27854 64.6117 5.62214C64.6117 5.96574 64.3262 6.24428 63.974 6.24428Z" fill="#DB1B24"/>
<path d="M60.623 12.2022C60.2708 12.2022 59.9853 11.9237 59.9853 11.5801C59.9853 11.2365 60.2708 10.9579 60.623 10.9579C60.9752 10.9579 61.2607 11.2365 61.2607 11.5801C61.2607 11.9237 60.9752 12.2022 60.623 12.2022Z" fill="#DB1B24"/>
<path d="M59.9853 9.0013C59.6331 9.0013 59.3476 8.72276 59.3476 8.37916C59.3476 8.03556 59.6331 7.75702 59.9853 7.75702C60.3375 7.75702 60.623 8.03556 60.623 8.37916C60.623 8.72276 60.3375 9.0013 59.9853 9.0013Z" fill="#DB1B24"/>
<path d="M55.6379 16.2181C55.2857 16.2181 55.0002 15.9396 55.0002 15.596C55.0002 15.2524 55.2857 14.9738 55.6379 14.9738C55.9901 14.9738 56.2756 15.2524 56.2756 15.596C56.2756 15.9396 55.9901 16.2181 55.6379 16.2181Z" fill="#DB1B24"/>
<path d="M68.3254 13.8431C67.9732 13.8431 67.6877 13.5646 67.6877 13.221C67.6877 12.8774 67.9732 12.5988 68.3254 12.5988C68.6776 12.5988 68.9631 12.8774 68.9631 13.221C68.9631 13.5646 68.6776 13.8431 68.3254 13.8431Z" fill="#DB1B24"/>
<path d="M62.2985 15.2056C61.7254 15.2056 61.2607 14.7523 61.2607 14.1931C61.2607 13.6339 61.7254 13.1806 62.2985 13.1806C62.8717 13.1806 63.3363 13.6339 63.3363 14.1931C63.3363 14.7523 62.8717 15.2056 62.2985 15.2056Z" fill="#DB1B24"/>
<path d="M66.7499 16.2181C66.1767 16.2181 65.7121 15.7647 65.7121 15.2056C65.7121 14.6464 66.1767 14.1931 66.7499 14.1931C67.323 14.1931 67.7877 14.6464 67.7877 15.2056C67.7877 15.7647 67.323 16.2181 66.7499 16.2181Z" fill="#DB1B24"/>
<path d="M57.6721 14.2273C57.099 14.2273 56.6343 13.774 56.6343 13.2148C56.6343 12.6556 57.099 12.2023 57.6721 12.2023C58.2453 12.2023 58.7099 12.6556 58.7099 13.2148C58.7099 13.774 58.2453 14.2273 57.6721 14.2273Z" fill="#DB1B24"/>
<path d="M59.3476 16.5255C58.9955 16.5255 58.7099 16.247 58.7099 15.9034C58.7099 15.5598 58.9955 15.2812 59.3476 15.2812C59.6998 15.2812 59.9853 15.5598 59.9853 15.9034C59.9853 16.247 59.6998 16.5255 59.3476 16.5255Z" fill="#DB1B24"/>
<path fill-rule="evenodd" clip-rule="evenodd" d="M14.6252 3.4375C14.6252 2.88522 15.0729 2.4375 15.6252 2.4375H53.1252C53.6775 2.4375 54.1252 2.88522 54.1252 3.4375C54.1252 3.98978 53.6775 4.4375 53.1252 4.4375H16.6252V11.4375C16.6252 11.9898 16.1775 12.4375 15.6252 12.4375C15.0729 12.4375 14.6252 11.9898 14.6252 11.4375V3.4375Z" fill="#FE666D"/>
</svg>
